<svg xmlns="http://www.w3.org/2000/svg" viewBox="0 0 954 565" role="img" aria-labelledby="tc-t"><title id="tc-t">The Collection</title><path fill="#FFFFFF" fill-rule="evenodd" d="M193.1 560.0C188.0 558.8 188.2 551.8 193.6 546.0C198.0 541.2 198.1 540.7 198.7 528.8C199.2 517.2 199.4 486.2 199.0 468.2C198.9 461.9 199.0 437.2 199.3 413.2C199.7 389.3 199.8 362.8 199.6 354.2C199.2 336.5 199.4 337.2 194.6 334.7C191.3 333.0 190.4 331.6 190.7 328.6C191.1 325.3 192.3 323.5 194.7 322.5C196.5 321.7 198.9 321.6 216.5 321.4C239.0 321.1 240.2 321.3 241.3 323.9C242.2 325.8 241.9 329.2 240.9 330.7C240.5 331.2 238.6 332.5 236.5 333.7C234.1 335.0 232.5 336.3 232.0 337.3C231.3 338.6 231.2 351.0 231.2 440.1L231.2 541.4L232.5 542.8C233.7 544.0 233.9 544.1 237.8 543.9C241.4 543.7 242.1 543.5 246.1 541.3C251.8 538.2 253.7 535.7 255.2 529.3C255.6 527.5 256.6 524.6 257.3 523.0C258.0 521.3 258.8 518.1 259.1 515.8C259.4 513.6 259.7 511.0 259.8 510.0C260.6 504.4 268.3 502.7 271.9 507.3C273.0 508.6 273.0 508.9 273.0 529.0C273.0 540.8 272.8 550.0 272.5 550.7C271.9 552.5 270.3 553.3 263.9 555.6C256.9 558.1 252.3 558.5 238.0 557.9C227.3 557.4 216.6 557.7 211.0 558.5C207.4 559.1 195.4 560.5 195.0 560.4C194.9 560.4 194.0 560.2 193.1 560.0ZM385.0 560.0C382.1 559.2 381.5 558.5 381.5 556.6C381.5 554.2 384.5 548.3 387.5 544.7C390.4 541.3 391.7 537.8 391.7 533.5C391.6 531.7 391.6 512.5 391.7 490.8C391.9 334.1 392.0 340.6 388.1 335.5C384.1 330.5 384.9 323.6 389.6 322.0C391.6 321.4 459.8 321.5 461.1 322.2C464.0 323.6 464.4 327.1 464.6 350.6C464.7 367.7 464.6 370.5 463.9 372.1C462.7 374.7 460.6 375.7 456.0 375.7C451.3 375.8 451.1 375.4 450.5 366.4C449.7 355.8 448.8 352.8 444.3 345.9C439.7 338.8 437.7 337.4 430.6 336.2C423.9 335.1 422.4 336.4 422.2 343.2C421.7 360.2 421.2 414.7 421.5 420.8C422.1 432.2 423.2 433.9 429.6 432.6C436.5 431.2 442.0 426.3 444.9 418.9C446.8 414.4 449.9 412.5 453.0 414.1C456.1 415.8 456.5 419.2 455.8 444.2C455.4 458.1 455.2 458.9 452.6 460.7C448.5 463.5 443.2 461.3 440.3 455.5C438.7 452.5 438.0 452.0 432.5 449.8C427.7 447.9 424.5 447.4 423.3 448.4C421.8 449.7 421.3 466.2 421.7 502.7C422.0 540.3 422.1 541.3 424.7 543.2C427.5 545.3 437.0 543.9 439.1 541.1C439.5 540.6 440.6 539.6 441.6 538.9C445.6 535.9 448.2 528.9 449.8 517.4C450.2 514.4 450.9 510.5 451.5 508.6C452.0 506.8 452.6 504.4 452.7 503.3C453.5 499.0 462.4 498.0 464.5 502.0C464.8 502.5 465.2 504.7 465.5 506.8C465.8 509.0 466.2 510.9 466.5 511.2C467.2 511.9 467.1 514.2 466.5 514.8C465.5 515.8 465.0 521.3 464.5 534.9C463.9 553.6 463.8 553.9 453.1 555.3C449.9 555.7 439.4 556.2 427.0 556.5C412.3 556.9 405.0 557.2 402.0 557.8C399.7 558.2 395.7 558.9 393.2 559.3C390.8 559.7 388.2 560.1 387.5 560.2C386.8 560.3 385.7 560.2 385.0 560.0ZM597.6 560.0C595.3 559.4 593.6 558.2 593.2 556.8C592.7 554.6 594.8 548.9 597.1 546.0C602.1 539.9 602.3 539.0 603.0 518.8C604.2 480.8 603.8 346.6 602.4 341.4C601.4 337.4 595.2 336.6 590.7 340.0C586.7 343.0 585.0 348.8 583.5 364.8C582.7 373.4 581.3 376.0 577.6 376.0C573.1 376.0 571.4 373.7 570.0 365.5C566.8 346.9 569.2 326.2 575.0 322.8C577.8 321.1 663.8 321.1 666.2 322.7C668.1 324.0 668.9 326.3 669.0 330.1C669.0 331.6 669.3 334.1 669.6 335.6C670.3 339.0 670.2 369.5 669.4 372.0C668.1 376.5 663.8 378.3 659.5 376.1C656.5 374.6 656.0 373.4 655.2 365.6C654.1 355.1 653.3 351.2 651.4 348.3C650.5 346.9 649.4 344.9 648.9 343.8C646.7 339.5 644.3 337.2 641.0 336.5C637.7 335.8 635.8 336.1 635.2 337.4C634.5 339.2 634.1 377.1 634.1 456.2C634.0 548.0 633.8 540.8 637.6 542.6C640.7 544.2 643.5 547.6 643.5 550.0C643.5 552.2 642.3 553.8 640.4 554.2C637.3 554.9 623.7 557.0 619.8 557.5C617.3 557.8 613.2 558.5 610.8 559.0C605.2 560.1 599.8 560.6 597.6 560.0ZM685.1 560.0C682.8 559.4 682.0 558.6 682.0 556.6C682.0 552.9 683.6 549.0 687.0 544.5C690.7 539.6 690.9 538.1 691.4 514.5C691.9 491.2 691.8 353.4 691.3 344.5C690.9 338.1 690.3 336.6 687.8 335.1C683.0 332.3 682.6 325.1 687.1 322.6C688.6 321.8 690.9 321.7 708.8 321.5C729.5 321.2 731.5 321.3 732.7 323.1C735.0 326.3 733.0 331.0 728.3 333.8C725.2 335.5 724.1 336.9 723.5 339.8C723.1 341.6 722.9 369.1 723.0 440.0L723.0 537.7L724.2 539.8C725.1 541.3 725.9 542.0 727.0 542.2C730.2 542.8 733.5 548.0 732.7 551.2C732.0 554.1 731.9 554.1 712.5 556.8C707.4 557.5 701.3 558.4 699.0 558.9C693.8 560.1 687.3 560.6 685.1 560.0ZM288.8 558.0C285.4 555.3 286.1 551.0 291.1 544.7C295.3 539.4 295.1 541.2 295.5 506.2C296.1 463.6 296.1 396.3 295.6 395.7C295.3 395.4 295.3 393.7 295.6 391.5C296.3 386.0 295.8 342.8 295.0 340.5C294.6 339.5 293.6 337.8 292.7 336.6C289.3 332.0 288.6 326.2 291.2 323.6C292.4 322.3 292.7 322.3 303.4 321.7C315.5 320.9 331.7 321.4 334.1 322.5C335.9 323.3 336.7 325.6 336.0 327.9C335.3 330.3 334.4 331.4 330.9 333.7C326.0 337.0 326.1 336.7 325.5 359.1C324.7 391.4 325.1 538.3 326.0 540.7C328.4 547.0 339.1 545.9 346.5 538.7C350.7 534.7 354.2 526.0 355.0 517.4C356.0 507.2 357.2 505.1 361.9 504.6C367.9 504.1 368.0 504.6 367.5 527.0C366.9 552.4 366.8 552.9 358.9 555.0C354.9 556.0 342.9 556.4 328.2 556.1C317.5 555.8 308.2 556.4 300.9 557.8C292.9 559.3 290.6 559.3 288.8 558.0ZM789.0 557.5C788.0 557.3 784.8 556.7 781.7 556.3C768.8 554.6 757.9 552.4 755.4 551.2C752.7 549.8 748.0 543.3 746.7 539.1C745.6 535.1 745.5 354.0 746.7 349.8C749.1 341.1 757.1 331.6 766.6 326.2C773.1 322.5 775.2 321.9 784.8 321.6C805.5 321.0 816.3 325.2 824.3 337.0C828.7 343.6 828.5 338.4 828.7 432.0C828.9 534.4 829.0 532.4 824.2 539.8C818.9 547.8 815.7 550.5 808.7 553.3C797.8 557.6 793.4 558.5 789.0 557.5ZM847.5 556.7C847.1 556.6 845.9 556.4 844.8 556.3C842.1 555.8 841.0 554.5 841.0 551.5C841.0 548.6 842.2 547.0 847.0 543.5C849.0 542.0 850.3 540.6 851.1 539.0C852.4 536.4 852.3 542.1 851.8 483.8C850.7 364.8 850.6 349.9 850.1 345.5C849.2 338.2 849.3 338.3 845.7 335.7C841.1 332.2 839.7 328.3 842.0 324.6C843.6 322.0 844.4 321.9 859.9 321.9C872.8 321.9 874.1 322.0 875.6 322.9C877.6 324.0 879.4 326.5 879.9 329.0C882.5 340.2 887.3 358.5 888.3 361.0C889.0 362.8 889.8 365.8 890.1 367.7C890.4 369.7 891.1 373.2 891.8 375.5C893.5 381.6 894.4 385.4 895.3 389.9C895.7 392.1 896.7 395.8 897.5 398.1C898.3 400.4 899.1 403.4 899.2 404.8C899.4 406.1 900.1 408.9 900.8 411.0C901.4 413.1 902.8 417.6 903.7 421.0C905.2 426.6 906.7 431.8 910.8 445.5C911.4 447.8 912.0 450.2 912.0 450.7C912.0 451.2 912.8 453.9 913.7 456.7C914.7 459.5 915.9 463.6 916.5 466.0C918.8 475.1 921.5 477.1 924.1 471.4C925.6 468.0 925.9 449.6 925.4 395.0C925.1 356.8 925.0 354.9 922.7 342.7L921.8 338.0L918.9 335.5C915.0 332.0 914.2 329.2 916.1 324.4C917.1 321.7 918.5 321.5 933.7 321.7C949.4 321.9 949.5 321.9 949.5 325.5C949.5 328.7 948.8 329.8 944.5 332.7C942.3 334.3 940.1 336.3 939.6 337.2C938.8 338.7 938.8 344.6 938.9 438.1C939.0 552.5 938.2 539.1 944.7 544.4C949.9 548.7 950.5 552.5 946.4 554.2C944.5 555.0 925.7 556.5 918.4 556.5C908.2 556.5 907.4 555.4 901.7 533.0C897.8 518.1 896.2 511.3 895.5 506.6C895.2 504.8 894.2 500.7 893.5 497.5C892.7 494.3 891.8 490.1 891.5 488.1C891.2 486.1 890.5 483.2 889.8 481.6C888.7 479.0 888.1 476.1 885.7 463.8C884.8 458.9 881.9 448.8 880.3 445.0C879.6 443.5 878.5 439.8 877.7 436.8C875.6 428.2 872.7 421.2 870.2 418.6C866.1 414.2 864.8 416.9 864.7 430.0C864.7 435.1 864.5 457.0 864.2 478.8C864.0 500.5 864.0 522.5 864.2 527.6C864.6 536.9 864.6 537.0 866.2 539.6C867.0 541.0 868.5 542.7 869.4 543.2C874.6 546.4 876.4 550.1 874.0 552.7C872.6 554.2 872.6 554.2 861.2 555.5C849.3 556.8 848.4 556.8 847.5 556.7ZM124.2 555.3C113.9 553.6 107.6 551.2 103.2 547.4C100.9 545.3 100.0 543.4 97.8 536.0C94.3 523.7 92.7 521.5 90.5 525.8C89.0 528.8 86.5 532.4 83.6 535.9C81.9 537.9 80.5 539.7 80.5 539.9C80.5 540.6 76.0 546.2 75.1 546.7C74.6 547.0 73.0 548.4 71.5 550.0C67.4 554.2 62.3 555.5 49.2 555.5C21.4 555.5 10.1 548.3 6.6 528.5C5.9 524.5 5.8 519.0 5.7 491.2C5.2 336.3 4.7 354.0 9.1 345.3C12.0 339.5 14.9 336.0 20.4 331.3C28.4 324.6 36.3 322.0 48.8 322.0C60.2 322.0 66.3 323.2 73.4 326.7C83.6 331.9 86.2 334.8 87.3 342.3C87.7 345.0 88.3 348.8 88.8 350.8C89.9 355.4 90.4 383.7 89.5 386.1C88.6 388.3 84.7 390.1 80.1 390.4C73.8 390.8 73.0 389.3 73.0 377.7C73.0 368.3 72.0 362.3 69.6 357.2C68.5 355.1 66.7 350.4 65.5 346.9C63.1 339.4 62.2 338.2 57.9 336.2C55.1 334.9 54.2 334.8 49.5 334.8C43.6 334.8 41.5 335.6 38.0 339.2C35.8 341.5 36.1 330.6 35.7 438.7C35.4 539.1 35.2 533.9 38.4 537.8C39.4 539.0 40.8 540.7 41.5 541.6C43.3 544.0 45.5 544.7 50.3 544.3C55.1 543.9 58.8 542.9 61.0 541.3C62.0 540.6 63.9 539.3 65.3 538.3C67.8 536.6 69.5 533.4 69.5 530.4C69.5 529.9 70.3 527.0 71.3 523.9C72.3 520.8 73.4 516.5 73.8 514.3C74.8 508.8 75.8 507.0 78.5 505.6C82.5 503.6 85.3 504.3 89.7 508.2C94.0 512.1 94.5 510.9 95.0 493.5C95.3 486.2 95.6 479.4 95.8 478.4C96.3 475.1 96.4 427.4 95.9 405.2C95.7 392.0 95.6 376.8 95.9 367.0L96.3 350.8L98.3 346.2C106.2 328.2 121.1 320.4 144.8 322.0C157.2 322.8 163.3 324.8 169.4 330.1C172.9 333.1 177.0 340.5 177.9 345.6C178.7 349.8 178.4 521.5 177.6 526.9C176.2 536.0 174.0 541.2 169.0 546.6C165.6 550.3 160.7 553.1 154.8 554.8C150.7 555.9 130.1 556.3 124.2 555.3ZM501.5 554.5C498.7 554.0 490.5 550.4 486.5 547.9C482.7 545.6 477.0 536.8 476.3 532.3C474.0 517.7 473.4 515.0 471.8 515.0C471.5 515.0 470.6 514.4 470.0 513.7L468.8 512.5L471.1 510.4C474.0 507.7 474.4 506.3 475.1 497.0C475.8 486.3 475.8 397.9 475.0 387.8C474.6 381.9 474.5 376.2 474.9 366.2L475.3 352.8L477.0 349.5C477.9 347.7 479.0 345.2 479.5 343.8C480.8 340.0 486.0 333.8 491.4 329.9C494.5 327.6 502.7 324.2 507.8 323.1C514.2 321.8 533.2 323.0 538.8 325.1C541.9 326.3 549.3 330.1 550.3 331.0C550.8 331.6 551.5 332.0 551.8 332.0C552.6 332.0 554.4 334.1 555.2 336.0C555.8 337.5 555.9 341.6 555.8 360.8L555.8 383.8L554.5 386.2L553.2 388.7L550.2 388.9C543.9 389.2 542.5 388.1 542.5 382.4C542.5 368.6 536.3 344.3 531.6 339.3C526.9 334.4 515.1 332.6 509.4 335.9C505.4 338.2 505.1 339.2 504.5 352.8C503.8 368.2 503.8 529.9 504.5 534.4C505.2 538.8 506.2 540.4 509.3 542.1C518.0 547.0 526.0 546.2 533.5 539.9C538.2 535.9 541.0 529.8 543.5 517.8C544.1 515.0 544.8 511.9 545.0 510.9C545.5 509.0 547.9 506.5 549.4 506.4C550.7 506.4 551.2 506.2 552.2 505.8C553.4 505.2 555.4 507.2 555.8 509.3C556.9 515.0 554.2 532.6 552.2 533.4C551.8 533.5 550.9 534.9 550.2 536.4C548.6 540.1 545.1 544.6 541.0 548.4C538.0 551.2 536.9 551.8 532.9 553.1C528.3 554.6 528.2 554.7 516.2 554.8C509.6 554.9 503.0 554.7 501.5 554.5ZM793.8 543.0C797.7 541.5 797.7 543.3 797.8 445.5C797.9 398.6 798.1 357.3 798.4 353.8C798.9 345.6 798.4 339.8 797.1 338.1C795.5 335.8 791.1 333.8 788.0 333.8C784.0 333.9 780.1 335.9 779.8 338.1C779.7 339.0 779.0 344.0 778.3 349.2L777.1 358.8L777.3 437.0C777.5 524.9 777.7 535.9 779.4 538.6C782.1 542.9 788.6 544.9 793.8 543.0ZM142.1 542.4C144.1 541.0 146.3 537.2 147.0 533.5C147.5 531.5 147.7 507.5 147.7 443.0C147.8 394.7 148.0 351.9 148.2 347.8C148.7 338.7 148.5 337.9 145.2 336.4C142.2 335.1 135.8 335.3 132.7 336.8C128.0 339.1 127.9 341.5 127.6 447.5C127.5 493.6 127.6 532.6 127.8 534.3C128.4 541.0 136.9 545.8 142.1 542.4ZM346.2 337.1C342.3 333.4 345.5 328.2 356.2 320.6C360.7 317.4 376.7 301.8 379.0 298.4C379.7 297.3 380.6 296.4 381.0 296.2C381.9 296.0 384.3 293.2 386.5 289.9C387.2 288.9 389.7 285.7 392.0 282.8C401.4 271.0 401.3 270.7 386.5 255.3C378.8 247.4 377.5 245.6 372.3 236.0C371.2 234.0 369.9 230.5 369.3 228.3L368.2 224.2L365.2 224.3C358.6 224.3 355.1 225.3 347.7 229.0C343.9 230.9 340.0 232.6 339.0 232.8C338.0 233.0 336.6 233.6 335.8 234.2C334.9 234.9 333.1 235.9 331.7 236.7C330.3 237.4 328.5 238.5 327.7 239.2C326.9 239.8 325.7 240.5 325.0 240.7C324.4 241.0 322.8 242.1 321.5 243.2C320.3 244.4 318.6 245.7 317.9 246.1C317.2 246.6 314.8 248.6 312.7 250.6C310.5 252.6 307.9 254.9 306.9 255.6C305.4 256.8 303.5 259.3 298.3 267.0C294.0 273.2 291.5 278.9 290.2 285.0C289.6 288.4 288.7 292.3 288.2 293.7C287.8 295.1 287.4 298.1 287.3 300.2C286.8 310.3 286.1 312.0 282.8 312.0C281.4 312.0 280.9 311.7 280.3 310.6C278.6 307.2 279.0 294.1 281.1 288.5C281.7 287.0 282.8 283.4 283.7 280.5C285.4 275.0 288.8 268.1 290.7 266.0C291.4 265.3 292.1 263.9 292.5 262.9C292.8 261.9 293.7 260.5 294.5 259.8C295.3 259.2 296.9 257.3 298.1 255.7C302.5 250.0 309.8 243.5 320.9 235.6C322.1 234.7 324.3 233.1 325.7 232.1C329.4 229.4 333.4 227.0 336.2 225.9C337.6 225.4 340.6 224.2 342.8 223.3C344.9 222.3 347.8 221.3 349.0 220.9C350.2 220.5 352.4 219.7 353.8 219.1C355.1 218.5 357.7 217.7 359.4 217.2C361.1 216.7 362.8 216.0 363.1 215.7C363.6 215.0 363.4 207.2 362.6 200.2L362.2 197.2L359.2 197.3C356.9 197.3 355.4 197.6 352.7 198.8C350.3 199.9 347.3 200.8 343.0 201.5C339.5 202.0 335.0 203.1 333.0 203.9L329.2 205.2L314.8 205.2L300.2 205.2L293.5 203.6C285.0 201.4 281.8 200.3 279.4 198.7C278.3 198.0 276.2 197.0 274.7 196.4C270.0 194.7 263.5 190.0 259.5 185.4C252.2 177.0 243.4 162.3 239.8 152.2C236.3 142.3 236.8 112.8 240.7 100.8C241.4 98.8 242.5 95.0 243.3 92.5C244.5 88.0 246.8 82.8 249.4 78.8C250.1 77.7 251.3 75.4 252.1 73.8C253.5 70.9 254.8 68.9 258.1 64.2C258.9 63.1 260.3 61.1 261.2 59.8C266.4 51.8 290.6 31.6 297.8 29.1C298.9 28.7 300.6 27.8 301.6 26.9C302.7 26.1 304.9 24.9 306.6 24.3C308.3 23.6 311.3 22.4 313.1 21.5C318.6 19.0 324.3 17.1 329.4 16.0C332.1 15.4 336.1 14.4 338.2 13.7C340.4 13.0 346.9 11.8 352.5 11.0C358.1 10.2 364.0 9.3 365.4 9.0C372.6 7.6 414.9 8.7 422.3 10.5C423.4 10.8 426.4 11.2 428.9 11.5C431.4 11.8 435.4 12.7 437.9 13.5C440.3 14.3 444.3 15.4 446.8 16.0C449.2 16.6 453.9 17.9 457.2 19.0C460.6 20.0 466.4 21.8 470.2 23.0C474.1 24.2 479.8 26.1 483.0 27.4C486.2 28.6 489.8 29.9 491.0 30.3C494.6 31.3 502.9 34.7 507.2 36.9C512.1 39.3 520.6 43.0 526.5 45.3C528.9 46.2 533.1 48.0 535.8 49.3C543.1 52.9 547.5 52.9 551.4 49.2C556.9 44.2 572.3 32.7 576.5 30.5C577.2 30.1 579.9 28.4 582.5 26.7C585.1 25.0 587.8 23.5 588.5 23.3C589.2 23.1 591.3 22.1 593.2 21.0C596.8 19.2 601.1 17.2 609.3 13.6C611.9 12.4 616.1 11.0 618.8 10.3C621.5 9.6 624.7 8.7 625.9 8.3C627.1 7.9 630.1 7.2 632.7 6.7C635.2 6.3 638.7 5.5 640.4 4.9C648.5 2.3 665.4 1.0 683.0 1.8C693.9 2.3 694.4 2.4 699.8 4.1C702.8 5.1 707.0 6.4 709.2 7.0C721.6 10.3 732.0 21.3 732.0 31.1C732.0 43.6 723.9 57.9 711.3 67.5C709.2 69.1 706.3 71.4 704.9 72.6C702.2 74.8 696.8 78.1 692.0 80.3C690.5 81.0 688.4 82.1 687.4 82.9C686.1 83.7 684.2 84.4 681.2 84.8C678.9 85.2 676.3 85.8 675.6 86.2C668.4 89.9 636.4 89.8 614.9 86.0C611.8 85.5 606.2 84.6 602.5 84.0C595.1 82.8 588.8 81.4 580.6 78.8C572.7 76.3 562.6 74.0 560.0 74.0C555.8 74.0 552.4 76.2 548.7 81.2C547.9 82.3 546.0 84.6 544.4 86.3C542.8 88.0 540.9 90.6 540.0 92.1C539.2 93.5 537.7 95.8 536.8 97.0C533.2 101.6 524.6 114.4 522.7 117.8C521.7 119.7 520.2 122.0 519.5 123.0C518.7 124.0 517.5 125.8 516.7 127.1C511.1 136.2 508.6 140.5 508.3 141.5C508.0 142.2 506.1 145.4 503.9 148.6C501.8 151.8 500.0 154.6 500.0 154.9C500.0 155.2 499.0 156.7 497.8 158.3C496.6 159.9 495.1 162.4 494.4 163.8C492.7 167.0 489.6 172.6 485.2 179.8C483.2 183.1 481.2 186.5 480.7 187.5C480.2 188.5 478.5 191.5 476.7 194.2C475.0 197.0 472.0 202.0 469.9 205.4C464.5 214.4 462.9 217.1 461.2 219.7C459.1 223.1 456.1 227.8 453.5 232.0C452.3 234.0 450.6 236.5 449.7 237.7C448.9 238.8 447.5 241.1 446.5 242.8C445.6 244.4 444.5 246.2 444.0 246.8C443.5 247.3 441.7 249.7 440.1 252.1C438.4 254.5 435.8 257.9 434.4 259.7C432.9 261.5 430.7 264.3 429.5 266.0C424.3 273.1 423.3 274.3 420.1 277.7C418.3 279.7 414.8 283.6 412.5 286.5C410.2 289.4 407.4 292.6 406.4 293.7C405.3 294.7 404.5 295.9 404.5 296.2C404.5 296.6 402.8 298.4 400.7 300.3C398.6 302.2 395.8 304.8 394.5 306.1C393.1 307.4 391.8 308.5 391.5 308.5C391.2 308.5 388.9 310.5 386.4 312.9C382.0 317.0 380.5 318.2 374.6 322.4C373.3 323.3 372.1 324.4 371.8 324.8C371.6 325.2 370.4 326.0 369.1 326.6C367.8 327.1 365.6 328.4 364.2 329.5C362.8 330.5 360.2 332.1 358.5 333.0C356.7 333.9 354.4 335.3 353.3 336.1C350.8 338.1 347.7 338.5 346.2 337.1ZM457.9 307.7C453.4 305.3 454.7 290.2 459.8 286.0C460.2 285.6 461.2 284.2 461.9 282.8C462.6 281.4 464.8 277.5 466.7 274.2C468.7 270.9 471.0 267.0 471.7 265.5C472.5 264.0 474.6 260.6 476.3 258.1C478.1 255.5 479.5 253.1 479.5 252.9C479.5 252.6 480.5 250.9 481.7 249.1C482.9 247.2 484.7 244.3 485.8 242.5C486.8 240.7 488.7 237.7 490.0 235.7C491.4 233.8 493.3 230.5 494.4 228.5C495.4 226.4 497.8 222.4 499.7 219.5C501.5 216.7 503.0 214.1 503.0 213.8C503.0 213.5 504.0 211.7 505.3 209.8C506.6 207.8 509.1 203.7 510.9 200.5C512.6 197.3 515.4 192.4 517.1 189.5C518.7 186.7 521.0 183.0 522.3 181.3C523.5 179.6 526.7 175.1 529.3 171.3C532.0 167.4 535.2 163.0 536.5 161.5C537.8 160.0 539.9 157.2 541.3 155.3C544.5 150.8 558.5 136.7 562.0 134.4C563.5 133.4 565.8 131.9 567.0 131.0C570.5 128.5 579.5 124.2 582.5 123.5C584.0 123.2 587.0 122.3 589.2 121.6C595.6 119.5 601.1 119.8 608.2 122.4C614.4 124.7 615.0 125.2 616.8 128.8C619.2 133.7 618.8 141.1 615.8 146.2C614.0 149.3 608.4 154.4 605.2 155.8C602.2 157.2 593.0 158.1 591.5 157.1C591.1 156.8 590.7 155.4 590.6 153.6C590.2 148.5 594.0 142.8 600.6 138.7C602.0 137.9 603.8 136.8 604.6 136.2C606.5 135.1 608.2 132.0 607.8 130.6C607.2 128.9 605.0 128.4 599.1 128.6C591.9 129.0 584.6 129.9 583.0 130.7C579.3 132.7 565.9 146.4 563.0 151.2C562.2 152.6 560.5 155.1 559.4 156.9C557.0 160.4 551.3 169.2 545.5 178.7C543.3 182.3 540.7 187.0 539.8 189.1C538.8 191.2 537.6 193.6 537.0 194.4C535.0 197.0 531.1 203.3 530.7 204.5C530.5 205.2 529.6 206.6 528.7 207.7C527.8 208.7 526.3 211.1 525.3 212.9C524.3 214.8 522.9 217.2 522.2 218.2C521.5 219.4 521.0 221.0 521.0 222.1C521.0 223.9 521.1 224.0 522.6 224.0C523.4 224.0 524.9 223.5 525.8 223.0C528.5 221.3 534.4 219.9 537.8 220.1C541.7 220.4 544.2 221.6 546.1 224.4C551.7 232.5 550.5 245.8 542.9 259.0C541.9 260.8 540.6 263.6 540.0 265.2C539.3 266.9 538.0 269.5 537.0 271.0C534.8 274.2 528.5 287.6 527.2 291.6C525.8 296.1 525.9 296.1 533.5 295.9L540.0 295.8L541.9 293.5C542.9 292.3 545.0 290.0 546.6 288.5C548.1 287.0 550.1 284.7 551.1 283.5C552.0 282.3 553.4 280.7 554.1 280.1C554.9 279.4 556.0 278.0 556.5 277.0C557.0 276.0 557.8 274.8 558.2 274.4C559.8 272.8 564.4 267.0 569.4 260.3C575.0 252.9 582.8 243.5 583.5 243.5C583.6 243.5 585.5 242.0 587.5 240.1C589.6 238.2 591.8 236.4 592.5 236.0C593.2 235.6 597.1 233.2 601.1 230.5C614.9 221.6 616.6 220.7 622.2 220.0C631.3 218.9 633.0 219.2 637.0 222.8C638.4 224.1 639.3 225.5 640.1 227.9C643.5 237.9 639.0 250.0 628.0 260.6C624.9 263.7 621.5 266.5 620.6 266.8C619.7 267.2 618.0 268.4 616.8 269.5C615.6 270.6 613.5 272.0 612.2 272.6C610.9 273.1 609.2 274.1 608.5 274.7C606.3 276.7 596.4 279.0 590.2 279.0C588.1 279.0 586.0 279.2 585.5 279.5C584.0 280.3 583.0 283.7 583.0 288.1C583.0 293.3 583.7 295.2 585.8 296.2C586.7 296.6 587.5 297.2 587.5 297.4C587.5 299.5 600.8 299.1 604.3 297.0C605.1 296.4 606.2 296.0 606.5 296.0C607.4 296.0 610.8 293.7 613.6 291.1C614.9 290.0 616.2 289.0 616.5 289.0C616.9 289.0 619.0 287.1 621.3 284.9C623.6 282.6 626.1 280.1 626.8 279.3C631.7 274.5 633.6 272.4 635.8 269.5C641.3 262.2 648.1 255.0 649.5 255.0C652.1 255.0 652.2 258.0 649.8 261.2C648.9 262.4 647.8 264.0 647.4 264.7C646.6 266.2 637.1 277.0 636.6 277.0C636.4 277.0 634.6 279.0 632.5 281.5C630.5 284.0 628.3 286.3 627.7 286.7C627.1 287.1 624.9 289.0 622.9 290.9C620.8 292.8 618.7 294.5 618.2 294.7C617.7 294.9 617.0 295.5 616.7 296.1C616.5 296.7 615.1 298.0 613.8 298.8C612.4 299.7 610.5 301.0 609.7 301.7C608.8 302.4 607.0 303.4 605.6 303.8C604.3 304.2 602.3 305.1 601.3 305.8C597.8 308.1 592.6 308.6 588.1 306.9C585.4 305.9 583.5 305.5 574.2 303.6C572.0 303.2 569.7 302.5 569.1 302.2C566.4 300.5 563.7 296.6 564.7 295.7C565.0 295.3 563.2 290.2 562.1 288.6C561.0 287.0 559.0 287.2 557.2 289.1C556.4 289.9 554.7 291.1 553.5 291.6C551.0 292.7 548.5 294.8 548.5 295.8C548.5 297.2 542.2 302.2 536.9 305.2C534.2 306.7 533.1 307.0 530.8 307.0C527.0 307.0 517.9 303.9 515.5 301.8C514.5 300.9 513.1 299.8 512.4 299.4C511.0 298.5 510.1 296.7 510.8 296.0C511.1 295.7 511.1 293.4 510.8 290.5C510.3 284.3 510.9 281.1 514.3 273.8C515.6 271.0 517.4 266.9 518.4 264.8C520.5 260.1 521.6 258.3 525.8 252.3C532.6 242.4 533.0 241.6 535.5 233.8C536.9 229.4 536.5 228.9 531.7 228.8C528.6 228.8 528.0 228.9 525.8 230.4C524.4 231.3 522.9 232.0 522.4 232.0C521.3 232.0 514.9 238.2 513.0 241.0C512.4 242.0 510.8 243.9 509.5 245.3C508.3 246.7 506.3 249.5 505.1 251.5C503.9 253.6 502.3 256.2 501.4 257.3C498.3 261.3 493.2 268.6 491.2 272.0C488.5 276.7 484.9 282.6 480.6 289.3C478.6 292.5 477.0 295.5 477.0 296.1C477.0 297.3 473.7 302.2 471.4 304.4C468.2 307.4 460.8 309.3 457.9 307.7ZM594.2 268.4C594.8 268.1 597.0 267.2 599.1 266.5C602.1 265.4 603.9 264.3 606.9 261.9C611.1 258.3 623.0 246.3 623.0 245.6C623.0 245.3 623.9 244.0 625.0 242.7C626.2 241.2 627.4 239.1 627.8 237.5C628.3 236.0 629.2 234.1 629.8 233.3C632.0 230.7 631.1 228.0 627.9 228.0C619.7 228.0 606.3 238.9 598.3 252.0C597.5 253.2 596.4 254.8 595.7 255.5C592.4 259.2 589.0 266.4 589.7 268.2C590.0 269.2 592.6 269.3 594.2 268.4ZM407.9 260.4C408.7 259.5 410.1 258.0 411.1 257.2C412.0 256.3 414.0 253.7 415.5 251.3C417.0 248.9 419.0 245.9 419.9 244.6C420.7 243.3 422.4 240.6 423.5 238.5C424.7 236.4 426.4 233.6 427.4 232.2C428.4 230.9 430.7 226.9 432.6 223.5C434.5 220.1 436.5 216.8 437.0 216.2C437.5 215.7 438.6 213.8 439.5 212.0C440.4 210.2 442.1 207.2 443.2 205.2C444.4 203.3 446.9 198.5 448.9 194.5C450.8 190.5 453.2 186.2 454.1 185.0C456.2 182.2 460.0 175.7 462.9 169.8C464.1 167.4 465.9 164.1 466.9 162.6C468.0 161.0 469.5 158.5 470.2 157.0C471.0 155.5 472.9 152.4 474.4 150.1C475.9 147.8 478.2 143.7 479.5 141.0C480.9 138.3 482.9 134.5 484.1 132.7C485.3 130.8 487.0 127.9 488.0 126.2C488.9 124.6 490.3 122.5 491.1 121.5C491.9 120.6 492.5 119.5 492.5 119.2C492.5 118.9 494.1 116.3 496.1 113.5C498.1 110.6 500.8 106.6 502.2 104.5C508.6 95.0 521.0 78.7 527.1 71.7C530.5 67.8 530.8 64.7 527.9 63.5C519.2 59.9 504.1 54.3 500.9 53.5C496.5 52.5 494.1 51.6 474.8 43.8C468.1 41.2 460.4 38.5 457.6 37.7C454.7 37.0 450.8 35.7 448.9 34.9C447.1 34.1 442.6 32.7 439.0 31.7C435.4 30.8 432.0 29.7 431.4 29.4C429.7 28.5 416.7 24.6 411.0 23.2C408.1 22.5 404.1 21.5 402.0 21.0C384.9 16.5 356.8 15.9 344.5 19.8C343.3 20.2 339.7 21.1 336.5 21.7C333.2 22.5 329.5 23.6 327.8 24.5C326.2 25.4 323.4 26.4 321.6 26.8C319.8 27.2 317.1 28.2 315.8 29.0C314.4 29.7 312.5 30.5 311.5 30.7C309.2 31.2 307.6 32.1 305.5 33.9C304.5 34.8 303.5 35.5 303.2 35.5C301.7 35.5 296.3 38.8 293.5 41.3C291.7 42.9 289.5 44.9 288.5 45.6C287.5 46.3 284.6 49.0 282.0 51.6C277.6 55.9 275.3 58.4 269.2 65.6C266.4 68.7 261.2 77.4 259.5 81.5C258.9 83.0 257.6 85.7 256.7 87.4C255.1 90.3 252.3 98.3 251.0 103.5C249.2 111.3 248.9 138.8 250.7 145.5C253.7 157.5 254.0 158.2 257.4 163.2C258.8 165.4 260.0 167.4 260.0 167.8C260.0 170.6 271.4 183.2 277.5 187.0C279.3 188.2 281.2 189.5 281.8 190.1C283.8 191.9 291.3 194.5 296.7 195.3C299.5 195.6 302.8 196.2 304.0 196.5C307.5 197.3 325.6 197.1 329.8 196.2C331.7 195.8 334.7 195.3 336.5 195.0C342.4 194.0 347.9 192.5 353.6 190.2C361.6 187.0 362.5 186.0 363.0 179.8C363.6 172.4 364.6 165.8 365.6 161.5C366.1 159.2 367.0 155.3 367.5 153.0C368.0 150.7 369.1 146.8 370.0 144.5C370.8 142.2 372.1 138.6 372.7 136.6C373.4 134.7 374.5 132.0 375.2 130.8C376.0 129.5 377.0 127.2 377.5 125.7C378.1 124.1 378.7 122.6 378.9 122.3C379.2 122.0 381.2 118.0 383.5 113.5C390.6 99.4 398.8 89.9 409.4 83.6C416.8 79.2 418.6 78.5 423.8 78.1C434.2 77.4 440.2 82.9 441.6 94.1C442.3 99.6 441.5 108.1 439.8 113.9C439.2 116.0 438.4 119.3 438.0 121.1C437.6 123.1 436.8 125.3 436.1 126.4C435.4 127.4 434.2 129.7 433.4 131.5C432.5 133.3 431.5 135.3 431.0 136.0C430.5 136.7 429.7 138.3 429.2 139.5C428.7 140.8 427.6 142.5 426.7 143.5C425.8 144.5 424.6 146.3 423.9 147.6C422.6 150.2 413.9 160.2 411.1 162.4C409.4 163.6 406.7 165.9 400.0 172.1C396.6 175.2 387.1 182.2 384.5 183.5C383.4 184.1 381.7 185.1 380.7 185.7C379.7 186.4 378.5 187.0 378.0 187.0C376.6 187.0 374.1 189.8 373.7 191.8C373.2 194.6 374.7 210.4 375.7 211.9C376.1 212.6 384.8 212.7 388.4 212.0C397.7 210.2 406.7 209.9 408.0 211.3C409.5 212.9 409.7 214.3 408.4 215.7C407.0 217.3 401.7 217.9 389.5 218.0C380.4 218.1 378.3 218.4 378.1 219.8C377.9 221.5 380.2 228.9 382.2 232.7C383.2 234.5 384.0 236.5 384.0 237.0C384.0 237.5 385.0 239.4 386.2 241.3C387.5 243.2 388.5 244.9 388.5 245.2C388.5 245.5 389.0 246.3 389.5 247.0C390.1 247.7 391.3 249.4 392.2 250.8C394.4 254.0 400.3 260.2 402.2 261.2C404.6 262.4 406.2 262.2 407.9 260.4ZM379.7 178.9C381.9 177.8 384.3 176.4 385.0 175.7C385.7 175.1 387.4 173.7 388.8 172.7C399.2 165.1 415.4 149.0 418.2 143.6C418.7 142.6 419.9 140.9 420.8 139.9C421.7 138.9 422.6 137.6 422.8 136.9C423.0 136.3 423.9 134.8 424.8 133.7C425.7 132.6 426.9 130.3 427.4 128.7C427.9 127.1 428.9 124.9 429.6 123.9C431.9 120.5 432.0 105.4 429.8 101.1C428.2 98.1 421.4 94.0 417.8 94.0C415.1 94.0 409.2 95.7 405.8 97.4C401.6 99.4 393.9 107.1 393.0 110.0C392.6 111.0 391.6 113.2 390.5 115.0C389.5 116.8 388.4 119.0 388.1 120.0C387.7 121.0 386.9 122.5 386.3 123.5C385.7 124.5 384.7 126.8 384.0 128.7C383.4 130.6 382.4 133.2 381.8 134.5C381.2 135.7 380.5 137.4 380.3 138.2C380.1 139.1 379.2 142.2 378.3 145.2C377.3 148.3 376.3 152.3 376.0 154.2C375.8 156.2 375.3 159.4 375.0 161.5C374.7 163.6 374.3 166.7 374.0 168.5C373.3 173.6 372.8 179.8 373.2 180.5C373.8 181.4 375.6 181.0 379.7 178.9ZM660.2 82.0C674.3 79.8 681.6 77.5 688.2 73.2C690.5 71.8 693.5 70.0 695.0 69.1C697.9 67.5 703.0 62.0 705.3 58.2C710.2 49.9 711.3 35.7 708.0 24.3C706.7 20.2 702.1 15.1 697.5 12.8C696.0 12.0 693.8 10.9 692.7 10.2C689.9 8.6 684.8 8.0 674.5 8.0C661.9 7.9 654.7 8.8 648.0 11.0C646.4 11.5 642.5 12.6 639.2 13.3C635.9 14.0 632.4 15.1 631.3 15.6C630.3 16.1 627.5 17.3 625.1 18.2C619.3 20.4 615.2 22.5 611.4 24.9C609.7 26.0 606.2 28.0 603.8 29.5C601.3 30.9 598.3 32.9 597.0 33.9C595.8 34.9 594.1 36.2 593.2 36.8C590.9 38.2 580.9 46.8 579.9 48.2C579.4 48.8 577.2 50.8 575.0 52.6C568.0 57.9 567.8 58.2 567.8 60.1C567.8 63.7 571.6 66.5 579.2 68.4C581.5 69.0 586.5 70.5 590.5 71.7C594.4 73.0 598.0 74.0 598.4 74.0C598.7 74.0 600.4 74.6 602.0 75.2C604.0 76.1 609.1 77.2 617.1 78.5C623.8 79.7 630.3 80.8 631.5 81.1C636.2 82.2 655.4 82.8 660.2 82.0Z"/></svg>
