<svg xmlns="http://www.w3.org/2000/svg" viewBox="0 0 64 64" role="img" aria-labelledby="m"><title id="m">The Collection</title><rect width="64" height="64" rx="0" fill="#0A0A0A"/><path fill="#F4F2ED" fill-rule="evenodd" d="M31.31 51.87C31.30 51.86 31.00 51.83 30.63 51.80C29.72 51.73 29.31 51.66 28.63 51.43C27.81 51.15 27.50 51.00 27.10 50.67C26.65 50.31 26.65 50.30 26.28 49.85C25.77 49.22 25.47 48.46 25.30 47.33C25.07 45.76 25.03 44.54 25.09 39.53C25.12 37.25 25.13 35.21 25.11 34.99C25.09 34.76 25.07 33.05 25.06 31.17C25.04 25.24 25.02 23.31 24.98 22.04C24.94 20.37 25.04 17.97 25.19 17.23C25.28 16.79 26.05 15.27 26.37 14.89C26.95 14.20 27.91 13.34 28.54 12.95C29.17 12.56 30.05 12.25 30.98 12.09C31.54 12.00 33.72 12.02 34.37 12.13C35.72 12.35 35.83 12.38 36.39 12.71C36.55 12.79 36.81 12.92 36.97 13.00C37.54 13.24 37.88 13.48 38.31 13.90C38.86 14.45 38.94 14.61 39.02 15.37C39.06 15.68 39.14 16.17 39.19 16.45C39.47 17.80 39.47 17.81 39.50 19.39C39.56 22.63 39.54 23.00 39.24 23.23C38.97 23.43 38.48 23.63 38.06 23.70C37.24 23.85 36.85 23.69 36.72 23.15C36.65 22.85 36.56 21.51 36.56 20.64C36.57 19.60 36.40 18.84 35.98 17.98C35.80 17.60 35.59 17.04 35.37 16.37C35.02 15.30 34.97 15.19 34.77 14.93C34.62 14.74 33.98 14.39 33.51 14.25C32.90 14.06 32.04 14.10 31.47 14.35C31.06 14.52 30.39 15.11 30.36 15.33C30.27 15.88 30.20 23.14 30.20 31.51C30.20 44.45 30.21 47.51 30.25 47.81C30.31 48.27 30.43 48.54 30.72 48.87C30.86 49.03 31.01 49.23 31.06 49.32C31.20 49.59 31.50 49.82 31.84 49.93C32.12 50.01 32.17 50.01 32.76 49.97C33.74 49.90 34.42 49.67 34.85 49.26C34.96 49.16 35.16 49.02 35.29 48.94C35.42 48.87 35.57 48.77 35.62 48.71C35.76 48.57 35.92 48.12 35.99 47.68C36.03 47.47 36.18 46.92 36.33 46.46C36.59 45.67 36.67 45.36 36.78 44.69C36.89 44.00 37.13 43.54 37.48 43.36C37.82 43.18 38.36 43.13 38.64 43.24C38.87 43.34 39.32 43.68 39.60 43.96L39.85 44.21L39.85 45.35C39.85 46.46 39.85 46.50 39.76 46.57C39.71 46.62 39.58 46.84 39.47 47.06C39.27 47.45 39.07 47.73 38.33 48.63C38.14 48.86 37.93 49.16 37.85 49.31C37.77 49.45 37.66 49.62 37.59 49.69C37.53 49.76 37.40 49.92 37.30 50.06C37.20 50.19 37.04 50.35 36.93 50.41C36.75 50.52 36.60 50.67 36.35 50.99C36.18 51.21 35.67 51.52 35.30 51.62C34.75 51.78 33.58 51.88 32.38 51.88C31.80 51.88 31.32 51.87 31.31 51.87Z"/></svg>
